<?xml version="1.0" encoding="UTF-8"?>
<!DOCTYPE svg PUBLIC "-//W3C//DTD SVG 1.1//EN" "http://www.w3.org/Graphics/SVG/1.1/DTD/svg11.dtd">
<!-- Creator: CorelDRAW 2021 (64-Bit) -->
<svg xmlns="http://www.w3.org/2000/svg" xml:space="preserve" width="243.472mm" height="278.108mm" version="1.1" style="shape-rendering:geometricPrecision; text-rendering:geometricPrecision; image-rendering:optimizeQuality; fill-rule:evenodd; clip-rule:evenodd"
viewBox="0 0 24347.2 27810.75"
 xmlns:xlink="http://www.w3.org/1999/xlink"
 xmlns:xodm="http://www.corel.com/coreldraw/odm/2003">
 <defs>
  <style type="text/css">
   <![CDATA[
    .fil0 {fill:#C53428}
   ]]>
  </style>
 </defs>
 <g id="Layer_x0020_1">
  <metadata id="CorelCorpID_0Corel-Layer"/>
  <path class="fil0" d="M-0 8680.31l0 16972.47c0,125.4 156.04,136.33 270.31,188.41l4296.45 1914.81c253,110.71 453.92,1.24 710.86,-71.89l5907.98 -1713.76 0 -16831.33c-246.3,130.33 -486.76,317.89 -720.13,479.6l-3939.43 2694.3c-187.32,135.31 -142.06,155.61 -139.59,460.26 29.57,3645.83 0.28,7292.94 0.28,10938.88 -188.7,15.7 -1329.59,368.65 -1517.29,458.72l0 -13302.75c309.56,-207.3 594.36,-427.5 910.8,-641.78 918.95,-622.28 1799.06,-1325.86 2723.64,-1934.09 152.93,-100.6 301.97,-211.04 453.36,-322.92 154.99,-114.53 297.06,-204.5 454.14,-322.15l907.03 -645.55c310.48,-224.56 597.07,-430.11 909.46,-643.11 312.3,-212.92 601.26,-435.09 910.44,-642.13l218.64 169.51c92.12,62.29 133.46,94.36 224.99,163.15l2689.82 1967.9c1007.2,685.32 2164.66,1583.53 3177.24,2327.36 259.27,190.46 555,366.87 799.21,576.93 59.69,51.34 88.41,24.29 88.41,123.31l0 12985.17c-230.7,0 -625.12,-107.38 -867.45,-155.84 -246.94,-49.39 -662.36,-161.73 -896.84,-161.73l0 -7374.73c0,-142.32 -983.95,-726.58 -1100.9,-804.54 -390.5,-260.32 -749.09,-499.41 -1143.25,-762.18 -781.01,-520.69 -1537.64,-1022.76 -2307.72,-1538.43l0 12667.6c195.99,94.04 491.36,147.97 727.75,224.97l2992.53 888.9c274.89,77.73 495.21,153.22 761.14,226.86l1878.34 560.23c252.52,70.42 665.39,-249.07 1010.03,-388.61 216.58,-87.7 429.08,-206.81 640.07,-312.64 218.56,-109.63 451.85,-208.23 670.45,-317.56l2646.43 -1270.29c0,-5689.09 -35.29,-11275.7 -35.29,-16972.48 -127.93,-85.66 -248.28,-159.33 -378.22,-256.92 -739.42,-555.33 -1517.77,-1033.18 -2258.28,-1587.87 -801.61,-600.46 -1642.59,-1164.04 -2465.53,-1733.48l-2096.52 -1467.34c-1228.56,-866.7 -2590.46,-1856.56 -3817.99,-2674.6l-1157.06 -818.95 -7600.61 5384.56c-266.39,183.88 -501.01,371.69 -762.12,543.46 -261.11,171.77 -495.73,359.57 -762.12,543.45 -135.45,93.5 -245.14,168.69 -372.37,262.77l-2293.61 1623.12c-94.15,69.86 -347.48,205.84 -347.48,322.95z"/>
 </g>
</svg>
